Tv Show

Golmal Hai Bhai Sab Golmal

16th Aug 12

Provided by Desiripper
Brought To You By JamMafia{TMRG}

Details:.


Complete name : Golmaal Hai Bhai Sab Golmaal Hai 16th Aug~JamMafia.avi 
Format : AVI 
Format/Info : Audio Video Interleave 
File size : 77.8 MiB 
Duration : 22mn 6s 
Overall bit rate mode : Variable 
Overall bit rate : 492 Kbps 


ID : 0 
Format : MPEG-4 Visual 
Format profile : Advanced Simple@L5 
Format settings, BVOP : 2 
Format settings, QPel : No 
Format settings, GMC : No warppoints 
Format settings, Matrix : Default (H.263) 
Codec ID : XVID 
Codec ID/Hint : XviD 
Duration : 22mn 6s 
Bit rate : 390 Kbps 
Width : 492 pixels 
Height : 360 pixels 
Display aspect ratio : 1.372 
Frame rate : 25.000 fps 
Color space : YUV 
Chroma subsampling : 4:2:0 
Bit depth : 8 bits 
Scan type : Progressive 
Compression mode : Lossy 
Bits/(Pixel*Frame) : 0.088 
Stream size : 61.7 MiB (79%) 
Writing library : XviD 1.2.1 (UTC 2008-12-04) 


ID : 1 
Format : MPEG Audio 
Format version : Version 1 
Format profile : Layer 3 
Mode : Joint stereo 
Mode extension : MS Stereo 
Codec ID : 55 
Codec ID/Hint : MP3 
Duration : 22mn 6s 
Bit rate mode : Variable 
Bit rate : 89.5 Kbps 
Minimum bit rate : 32.0 Kbps 
Channel(s) : 2 channels 
Sampling rate : 44.1 KHz 
Compression mode : Lossy 
Stream size : 14.2 MiB (18%) 
Alignment : Aligned on interleaves 
Interleave, duration : 26 ms (0.65 video frame) 
Interleave, preload duration : 121 ms 
Title : Golmaal Hai Bhai Sab Golmaal Hai 16th Aug .ac3_track_1__audio 
Writing library : LAME3.99r 
Encoding settings : -m j -V 4 -q 0 -lowpass 17.5 --vbr-new -b 32 

ScreenShots 
http://img214.imageshack.us/img214/1389/golmaalhaibhaisabgolmaa.jpg